<svg width="512" height="512" viewBox="0 0 512 512" fill="none" xmlns="http://www.w3.org/2000/svg">
<g id="Group 47">
<path id="Vector" d="M256 512C397.385 512 512 397.385 512 256C512 114.615 397.385 0 256 0C114.615 0 0 114.615 0 256C0 397.385 114.615 512 256 512Z" fill="#55725C" fill-opacity="0.85"/>
<path id="Vector_2" d="M243.808 345.432V271.084C220.62 264.46 203.616 254.436 192.792 241C181.968 227.576 176.556 211.276 176.556 192.112C176.556 172.712 182.676 156.416 194.92 143.22C207.164 130.032 223.46 122.432 243.808 120.424V102.852H269.54V120.424C288.348 122.672 303.312 129.088 314.432 139.676C325.552 150.26 332.652 164.428 335.728 182.172L290.832 188.028C288.108 174.076 281.012 164.608 269.54 159.636V229.02C297.932 236.712 317.276 246.676 327.564 258.924C337.856 271.172 343 286.868 343 306.032C343 327.448 336.524 345.484 323.572 360.152C310.62 374.82 292.604 383.812 269.536 387.124V420.304H243.804V388.012C223.336 385.528 206.72 377.9 193.94 365.12C181.164 352.344 173.004 334.304 169.452 311L215.764 306.032C217.656 315.496 221.204 323.66 226.412 330.52C231.62 337.392 237.42 342.36 243.808 345.432ZM243.808 159.116C236.828 161.484 231.268 165.504 227.128 171.184C222.984 176.86 220.916 183.132 220.916 189.992C220.916 196.26 222.808 202.084 226.592 207.468C230.376 212.856 236.112 217.204 243.804 220.512L243.808 159.116ZM269.536 347.916C278.408 346.268 285.62 342.156 291.184 335.588C296.744 329.02 299.524 321.304 299.524 312.432C299.524 304.512 297.188 297.68 292.516 291.936C287.844 286.196 280.184 281.796 269.536 278.712V347.916Z" fill="#FFD464"/>
</g>
</svg>
