<svg width="57" height="57" viewBox="0 0 57 57" fill="none" xmlns="http://www.w3.org/2000/svg">
<g id="Group 7">
<circle id="Ellipse 1" cx="28.5" cy="28.5" r="28.5" fill="#8C8A8A"/>
<path id="Vector" d="M25.85 8C25.5715 8 25.3044 8.11062 25.1075 8.30754C24.9106 8.50445 24.8 8.77152 24.8 9.05V12.9489C23.3357 13.334 21.9315 13.9189 20.6269 14.6872L17.8633 11.9236C17.6662 11.7267 17.3991 11.6161 17.1205 11.6161C16.8419 11.6161 16.5748 11.7267 16.3777 11.9236L11.9236 16.3777C11.7267 16.5748 11.6161 16.8419 11.6161 17.1205C11.6161 17.3991 11.7267 17.6662 11.9236 17.8633L14.6881 20.6277C13.9202 21.9322 13.3355 23.3361 12.9505 24.8H9.05C8.77152 24.8 8.50445 24.9106 8.30754 25.1075C8.11062 25.3044 8 25.5715 8 25.85V32.15C8 32.4285 8.11062 32.6955 8.30754 32.8925C8.50445 33.0894 8.77152 33.2 9.05 33.2H12.9505C13.3355 34.6639 13.9202 36.0678 14.6881 37.3723L11.9236 40.1367C11.7267 40.3338 11.6161 40.6009 11.6161 40.8795C11.6161 41.1581 11.7267 41.4252 11.9236 41.6223L16.3777 46.0764C16.5748 46.2733 16.8419 46.3839 17.1205 46.3839C17.3991 46.3839 17.6662 46.2733 17.8633 46.0764L20.6269 43.3128C21.9321 44.0782 23.3363 44.6607 24.8 45.044V48.95C24.8 49.2285 24.9106 49.4955 25.1075 49.6925C25.3044 49.8894 25.5715 50 25.85 50H32.15C32.4285 50 32.6955 49.8894 32.8925 49.6925C33.0894 49.4955 33.2 49.2285 33.2 48.95V45.0495C34.6632 44.6639 36.0661 44.0781 37.3689 43.3086L40.1367 46.0764C40.5466 46.4863 41.2119 46.4863 41.6223 46.0764L46.0764 41.6223C46.2733 41.4252 46.3839 41.1581 46.3839 40.8795C46.3839 40.6009 46.2733 40.3338 46.0764 40.1367L43.296 37.3559C44.0575 36.0557 44.6377 34.6574 45.0205 33.2H48.95C49.2285 33.2 49.4955 33.0894 49.6925 32.8925C49.8894 32.6955 50 32.4285 50 32.15V25.85C50 25.5715 49.8894 25.3044 49.6925 25.1075C49.4955 24.9106 49.2285 24.8 48.95 24.8H45.0209C44.6382 23.3424 44.058 21.944 43.2964 20.6437L46.0768 17.8633C46.2737 17.6662 46.3843 17.3991 46.3843 17.1205C46.3843 16.8419 46.2737 16.5748 46.0768 16.3777L41.6218 11.9236C41.5245 11.8259 41.4087 11.7484 41.2813 11.6956C41.1539 11.6427 41.0172 11.6156 40.8793 11.6158C40.7412 11.6157 40.6045 11.6428 40.4769 11.6957C40.3494 11.7485 40.2335 11.826 40.1359 11.9236L37.3681 14.6914C36.0649 13.925 34.6624 13.3417 33.2 12.9581V9.05C33.2 8.77152 33.0894 8.50445 32.8925 8.30754C32.6955 8.11062 32.4285 8 32.15 8H25.85ZM29 15.35C36.5558 15.35 42.65 21.4442 42.65 29C42.65 36.5558 36.5558 42.65 29 42.65C21.4442 42.65 15.35 36.5558 15.35 29C15.35 21.4442 21.4442 15.35 29 15.35ZM29.0025 16.2047C28.9706 16.2047 28.9383 16.2068 28.9063 16.2072C29.163 16.2303 29.4192 16.2618 29.6728 16.3105C29.6909 16.9107 29.8245 18.0313 28.6522 17.9914C27.6875 18.0456 26.7719 20.2375 26.2288 18.6558C26.2923 17.8444 27.6892 16.2093 26.0025 16.8036C25.6434 17.3219 25.737 18.2854 25.0713 18.172C24.8353 19.0258 24.1692 18.5172 24.0373 18.1472C23.7172 18.3345 24.2746 18.8142 23.9163 19.0699C24.9516 18.374 24.0016 19.941 24.5934 20.3442C24.028 20.8869 25.039 22.2754 23.8466 21.9238C22.7483 21.7487 24.7009 20.537 23.3552 21.1153C22.5097 21.3052 22.5555 21.7878 23.188 21.915C22.6202 22.448 21.8957 22.4766 21.5589 22.2363C20.6709 22.7995 19.8648 23.4826 19.1636 24.2662C18.1207 24.3149 18.3559 26.4292 17.8545 26.2141C17.7994 25.5665 18.0204 24.5207 17.3547 24.6719C17.1867 24.6165 17.0346 24.6904 16.9019 24.8378C16.6883 25.4606 16.5234 26.0991 16.4088 26.7475C16.4235 26.8475 16.4475 26.9323 16.4827 26.9953C17.3832 25.9025 16.5428 27.7828 16.7608 28.1495C17.287 28.95 16.4155 30.3797 17.6608 30.6552C18.1018 29.8009 18.5118 30.5767 18.61 30.4734C19.0158 30.402 19.3043 31.4032 20.0322 31.268C20.8755 31.1798 20.4585 32.8375 21.6088 33.0211C23.0137 33.4285 22.8684 35.3109 24.4153 35.5444C25.33 36.0799 27.892 36.3143 27.0894 37.7856C25.8912 38.2795 26.6598 40.4622 24.8953 40.0355C24.5064 40.1476 24.3384 40.5395 24.0495 40.802C25.6179 41.4596 27.3018 41.7973 29.0025 41.7953C32.5116 41.7953 35.6868 40.3845 37.9972 38.1006C38.2652 37.3702 38.4059 36.5566 38.9061 35.9447C39.2253 34.8435 38.0976 34.0568 38.7444 33.0383C38.1833 33.1055 37.19 32.4364 36.5688 33.3491C35.8594 33.3588 35.1719 34.1723 34.5125 33.7481C33.6364 33.2277 32.6309 32.6191 32.3831 31.557C32.4898 30.7287 32.2353 29.667 32.3142 28.8992C32.7061 27.5703 33.762 26.7719 33.9799 25.4586C34.0702 25.3796 34.8359 24.7824 34.8678 24.7572C35.7994 24.5165 37.0661 23.0213 37.6222 24.5203C37.8124 24.6576 39.08 25.296 38.9662 24.7916C38.9968 24.0037 41.0985 24.4312 40.0191 23.4006C39.9074 23.3346 39.4815 23.2111 39.2001 23.2897C39.0838 23.3174 38.5848 23.8693 38.1585 23.1276C37.5033 22.5169 38.1241 24.7639 37.2442 23.6022C38.1489 23.3014 36.0946 22.2498 36.5789 22.8617C37.2887 24.0679 35.9649 23.2758 36.2051 22.4442C35.0593 22.3035 35.6158 24.4539 34.5411 24.7845C34.5482 24.7857 34.5562 24.7845 34.5633 24.7853L34.3764 24.8097L34.0866 24.8361C33.822 24.5661 33.0492 24.5325 33.2781 23.7508C32.7909 22.9066 33.2739 22.5845 34.1362 22.6639C35.0056 22.107 32.3272 21.44 34.048 21.1498C33.2949 21.1981 32.9795 21.2266 32.8816 20.2972C33.0018 21.4501 31.5133 20.7315 32.3117 20.0452C32.6158 19.8411 31.6116 19.4236 32.4553 19.2808C33.0194 19.2514 34.1324 21.5379 34.3361 20.1661C34.7196 20.0431 33.9783 19.3093 34.1555 19.2703C33.1567 19.5886 32.8648 17.8347 32.8573 17.1787C33.1882 17.1913 33.523 17.1644 33.7431 17.1144C32.9492 16.7983 32.1255 16.563 31.2844 16.4122C31.5145 16.5008 31.6624 16.6201 31.3138 16.6633L31.0362 16.568C30.8022 16.4336 30.7354 16.3601 30.7594 16.3278C30.1772 16.2468 29.5903 16.2057 29.0025 16.2047ZM24.4774 17.5571C24.406 17.5663 24.2716 17.6298 24.06 17.7814C23.7954 17.8948 23.2662 18.5945 23.8869 18.0766C24.3527 17.9994 24.6933 17.5311 24.4774 17.5575V17.5571ZM33.9972 17.8994C33.8678 17.9099 34.2895 18.2493 34.09 17.9183C34.0606 17.9065 34.0293 17.9001 33.9976 17.8994H33.9972ZM23.0389 18.0552C22.9285 18.0472 22.7659 18.0972 22.5391 18.2299C21.797 18.2929 21.7579 19.9255 21.7798 19.8272C21.9994 19.6806 22.1935 19.2325 22.4778 19.2589C23.0079 19.2039 23.5161 18.0901 23.0389 18.0552ZM29.9097 18.0846C30.4452 18.0624 31.2852 18.4895 30.1231 18.6336C29.9341 18.6327 29.727 18.6 29.5851 18.463C29.4855 18.1984 29.6665 18.0951 29.9097 18.085V18.0846ZM34.027 18.2984C33.8035 18.2778 34.8771 19.033 34.4239 18.4614C34.1996 18.348 34.0782 18.303 34.027 18.2984ZM31.7892 18.7176C31.8531 18.6894 31.9702 19.051 31.7569 18.8116C31.7611 18.7516 31.7741 18.7239 31.7892 18.7176ZM32.612 18.915C32.6637 18.9292 32.8564 19.3282 32.6275 19.0678C32.5927 18.9481 32.5944 18.9103 32.612 18.915ZM34.9422 18.9175C34.83 18.9179 34.838 19.0363 35.1769 19.3358C35.2756 19.789 35.0417 20.0074 35.5478 19.5983C35.6532 19.243 35.1295 18.9166 34.9422 18.9179V18.9175ZM20.1876 20.5714C20.0271 20.5525 20.1691 21.2846 20.3497 20.7298C20.2774 20.6206 20.2245 20.5756 20.1876 20.5714ZM22.716 20.8927C22.6152 20.8915 22.7076 21.13 22.8844 20.9969C22.8037 20.9209 22.7491 20.8932 22.7155 20.8927H22.716ZM38.2022 20.9914C37.9943 21.0154 38.6621 22.4119 38.8217 21.7756C39.6676 21.6454 38.6923 20.9255 38.5033 21.2359C38.345 21.0532 38.2501 20.9856 38.2022 20.9914ZM20.2069 21.2464C20.083 21.2741 20.0082 22.0335 20.2619 21.2859C20.243 21.2535 20.2249 21.2426 20.2073 21.2464H20.2069ZM36.6734 22.015C36.631 22.0276 36.7288 22.1368 37.0842 22.4022C37.2114 22.3644 37.8389 22.9486 37.6919 22.6206C37.4525 22.3825 36.8519 22.041 36.6994 22.0158C36.6909 22.0138 36.682 22.0135 36.6734 22.015ZM19.8936 22.0217C19.7592 21.9944 19.4967 22.4526 19.9561 22.133C19.949 22.0599 19.9246 22.028 19.8936 22.0217ZM38.508 22.6294C38.4378 22.6597 38.7637 23.1213 38.739 22.7886C38.5995 22.6576 38.5319 22.6194 38.508 22.6294ZM35.7116 23.2594C35.8813 23.233 35.7801 24.0125 35.4512 23.6278C35.5688 23.3674 35.6553 23.2683 35.7116 23.2594ZM39.1791 23.5341C39.3639 23.5102 39.5214 24.0335 39.0094 23.7895C39.0527 23.611 39.1178 23.5421 39.1791 23.5341ZM29.2323 24.2905C29.4313 24.3082 29.3935 24.6307 28.9597 24.4065C29.0727 24.3128 29.1655 24.2847 29.2323 24.2905ZM29.8316 24.4955C29.9127 24.5262 29.7539 24.8176 29.6594 24.5812C29.751 24.5039 29.8047 24.4854 29.8316 24.4955ZM31.9933 25.8777C32.1067 25.8508 32.0555 26.2561 31.8883 25.9798C31.9324 25.9134 31.9673 25.884 31.9933 25.8777ZM18.3366 25.9945C18.4114 25.9936 18.5769 26.5501 18.3114 26.2339C18.2963 26.0566 18.3118 25.9945 18.3366 25.9945ZM18.1892 26.4439C18.264 26.4565 18.2274 27.1684 18.0775 26.7328C18.127 26.5128 18.164 26.4397 18.1892 26.4439ZM17.429 26.6736C17.5042 26.6816 17.6096 26.7089 17.7537 26.7614C18.0225 27.5166 18.7558 27.7623 18.5483 28.0953C19.0771 28.3062 19.8478 29.3083 18.6016 28.8597C17.7742 28.5262 18.8898 28.2272 17.9112 27.963C17.8725 27.5514 16.9002 26.619 17.4286 26.6736H17.429ZM32.8644 26.8819C32.9883 26.8819 33.0862 27.3817 32.7208 27.2935C32.7468 26.9848 32.8081 26.8819 32.8644 26.8819ZM18.4563 27.1045C18.5109 27.1184 18.5974 27.2671 18.5466 27.4481L18.4853 27.4069C18.4059 27.2137 18.4076 27.1251 18.4362 27.1066C18.4392 27.1048 18.4425 27.1037 18.446 27.1033C18.4494 27.1028 18.453 27.1031 18.4563 27.1041V27.1045ZM31.9341 27.1272C32.2861 27.1071 32.9119 27.3931 32.1042 27.42H31.8325L31.7842 27.3981C31.6704 27.2087 31.7745 27.1365 31.9341 27.1272ZM17.6995 28.1188C17.857 28.152 18.3127 28.6585 17.7889 28.4767C17.6172 28.1869 17.6277 28.1041 17.6995 28.1188ZM16.2379 28.16C16.2186 28.4396 16.2084 28.7197 16.2072 29C16.2072 32.4591 17.5789 35.5936 19.8058 37.8956C19.1153 36.8351 18.1291 35.9821 17.6797 34.7645C16.7347 33.5566 17.5025 32.2592 17.3139 31C17.2585 30.3331 17.0943 31.3982 16.8717 30.5519C16.5344 29.861 16.4189 28.9462 16.2375 28.16H16.2379ZM19.495 28.8862C19.6911 28.861 19.9553 29.3898 19.3555 29.1445C19.3715 28.9639 19.4295 28.8942 19.495 28.8862ZM20.4501 29.8786C20.5294 29.9097 20.6017 31.1092 20.3892 30.5422L20.3787 30.3453C20.3963 29.987 20.4236 29.8681 20.4501 29.8786ZM29.9992 30.6775C30.1483 30.6939 30.622 31.0021 30.1189 30.9022C29.9307 30.7233 29.9311 30.6703 29.9992 30.6775ZM30.73 30.8451C30.8652 30.8425 30.8157 31.2546 30.6069 30.927C30.6582 30.8682 30.6989 30.8455 30.73 30.8451ZM30.6086 31.2033C30.8161 31.1697 30.6531 31.5813 30.4028 31.3117C30.4935 31.2428 30.5607 31.2109 30.6086 31.2033ZM30.2575 31.2558C30.3339 31.2642 30.2902 31.6347 30.1399 31.4045C30.1932 31.2911 30.2323 31.2533 30.2575 31.2558ZM38.2123 33.7914C38.2887 33.7998 38.2455 34.1702 38.0955 33.94C38.1484 33.8266 38.1867 33.7888 38.2123 33.7914Z" fill="#9BFF6C"/>
</g>
</svg>
