<svg width="57" height="57" viewBox="0 0 57 57" fill="none" xmlns="http://www.w3.org/2000/svg">
<g id="Group 7">
<circle id="Ellipse 1" cx="28.5" cy="28.5" r="28.5" fill="#8C8A8A"/>
<path id="Vector" d="M39.3135 17C38.0853 18.1755 36.6242 19.0804 35.0247 19.6563C33.338 19.9539 28.6704 17.7892 26.3704 19.999C25.9871 20.3823 25.5136 20.7657 25.0175 21.149C23.9352 20.6755 22.2666 19.9539 21.0489 19.2549C19.8313 18.5559 16.7646 17 16.7646 17L10 24.8921C10 24.8921 11.6686 27.147 12.7059 28.6352C13.3823 29.6273 14.2166 31.1381 14.7578 32.1528L13.9911 33.0548C13.8075 33.4195 13.7415 33.8321 13.8021 34.2359C13.8626 34.6397 14.0469 35.0148 14.3294 35.3096C14.6555 35.5541 15.0523 35.6859 15.4598 35.6851C15.8674 35.6843 16.2636 35.5509 16.5888 35.3051C16.4682 35.4463 16.377 35.61 16.3204 35.7868C16.2638 35.9636 16.243 36.1499 16.2591 36.3348C16.2753 36.5197 16.3281 36.6996 16.4145 36.8639C16.5009 37.0282 16.6192 37.1736 16.7624 37.2917C17.1067 37.4928 17.4985 37.5984 17.8972 37.5976C18.296 37.5968 18.6873 37.4896 19.0308 37.2872C18.7732 37.6083 18.6322 38.0074 18.631 38.4191C18.6297 38.8308 18.7683 39.2307 19.024 39.5533C19.3564 39.6684 19.7109 39.7051 20.0598 39.6605C20.4087 39.6159 20.7426 39.4912 21.0354 39.2963C20.8895 39.6415 20.8518 40.0228 20.927 40.3899C21.0023 40.7571 21.1871 41.0928 21.4571 41.3527C21.8384 41.5222 22.2565 41.592 22.6722 41.5557C23.0878 41.5194 23.4875 41.3782 23.8337 41.1453L24.9972 40.0923C26.0615 41.152 27.5295 41.8082 29.1507 41.8082L29.2883 41.806C29.8226 41.7604 30.3344 41.5703 30.7689 41.2561C31.2035 40.9419 31.5444 40.5154 31.7551 40.0223C32.0843 40.1486 32.4586 40.2343 32.8555 40.2343C33.3876 40.2343 33.8815 40.081 34.2986 39.8172C35.6177 38.9445 35.302 38.2681 35.302 38.2681C35.7711 38.47 36.2921 38.5178 36.7901 38.4048C37.2881 38.2917 37.7374 38.0236 38.0733 37.6389C38.4223 37.2819 38.6424 36.8186 38.6988 36.3225C38.7552 35.8263 38.6445 35.3255 38.3845 34.8993C38.3987 34.9078 38.4152 34.9117 38.4318 34.9105C39.3811 34.9105 40.2064 34.3874 40.6371 33.6162C40.849 33.0681 40.9206 32.4758 40.8454 31.8929C40.7702 31.3101 40.5506 30.7553 40.2064 30.279L40.2132 30.2903C42.0622 29.9295 41.9945 29.005 42.8965 27.6521C43.7505 26.548 44.8131 25.6225 46.024 24.9282L39.3135 17ZM39.2007 32.9195C38.2086 33.9116 37.4419 33.4832 35.7508 32.1979C34.0596 30.9126 30.6998 28.4999 30.6998 28.4999C30.8374 29.1876 31.1553 29.7852 31.604 30.261C32.3233 31.0705 34.4655 32.9195 35.4802 33.8665C36.1115 34.4528 37.7351 35.6253 36.788 36.5273C35.841 37.4292 35.0968 36.5273 33.541 35.2645C31.9851 34.0018 28.5126 30.8901 28.5126 30.8901C28.4935 31.1884 28.5378 31.4873 28.6428 31.7672C28.7477 32.047 28.9109 32.3014 29.1214 32.5136C29.5047 32.9646 31.6469 35.0391 32.5488 35.9861C33.4508 36.9332 34.24 37.4969 33.4733 38.241C32.7067 38.9851 31.1508 37.8126 30.2939 36.9332C28.9636 35.6479 26.3253 33.2577 26.3253 33.2577L26.3231 33.3772C26.3231 34.0176 26.5441 34.6039 26.9161 35.0684C27.5655 35.9207 28.8283 37.0256 29.5949 37.8825C30.3616 38.7393 30.8126 39.4609 29.5949 40.1373C28.3773 40.8138 26.5734 39.1452 25.7842 38.3334V38.3289C25.7843 38.1062 25.7043 37.8909 25.5587 37.7224C25.289 37.4725 24.9562 37.301 24.5962 37.2263C24.2362 37.1516 23.8626 37.1765 23.5158 37.2985C23.6585 37.1707 23.7729 37.0145 23.8516 36.8398C23.9304 36.6652 23.9717 36.476 23.973 36.2845C23.9742 36.0929 23.9354 35.9032 23.859 35.7276C23.7826 35.5519 23.6703 35.3942 23.5293 35.2645C23.2333 35.0403 22.872 34.9191 22.5007 34.9195C22.1293 34.9199 21.7683 35.0419 21.4728 35.2668C21.6223 35.1241 21.7376 34.9495 21.8103 34.7561C21.883 34.5627 21.9112 34.3554 21.8928 34.1496C21.8744 33.9438 21.8098 33.7448 21.7039 33.5673C21.5981 33.3899 21.4536 33.2386 21.2812 33.1247C20.8775 32.871 20.4038 32.7519 19.9282 32.7843C19.4526 32.8167 18.9995 32.999 18.6339 33.3051C18.8782 33.009 18.9987 32.6299 18.9701 32.2471C18.9415 31.8643 18.7662 31.5074 18.4806 31.2509C18.1257 30.9205 17.6735 30.7139 17.1915 30.6619C16.7094 30.6099 16.2235 30.7152 15.8063 30.9622L14.3068 28.43C13.2696 26.7839 12.0519 25.0702 12.0519 25.0702L17.1931 18.8242C17.1931 18.8242 19.0195 19.9516 20.5303 20.8085C21.2744 21.2369 22.5597 21.8006 23.5293 22.2516C21.996 23.4016 20.7107 24.5065 21.094 25.2732C21.7771 25.7635 22.5935 26.034 23.4343 26.0485C24.2751 26.063 25.1003 25.8209 25.8 25.3543C26.697 24.758 27.7511 24.4417 28.8283 24.4456C29.6107 24.4456 30.3548 24.608 31.029 24.9034C32.2782 25.7467 34.5782 27.8212 36.6753 29.129C39.3135 31.0457 39.8321 32.2858 39.2007 32.9172V32.9195Z" fill="#9BFF6C"/>
</g>
</svg>
