<svg width="57" height="57" viewBox="0 0 57 57" fill="none" xmlns="http://www.w3.org/2000/svg">
<g id="Group 5">
<circle id="Ellipse 3" cx="28.5" cy="28.5" r="28.5" fill="#8C8A8A"/>
<path id="Vector" d="M46.075 37.5625H32.0578C32.015 38.6846 31.2074 39.375 30.165 39.375H26.65C25.5695 39.375 24.741 38.3855 24.7555 37.5625H10.925C10.4162 37.5625 10 37.9703 10 38.4688V39.375C10 41.3687 11.665 43 13.7 43H43.3C45.335 43 47 41.3687 47 39.375V38.4688C47 37.9703 46.5838 37.5625 46.075 37.5625ZM43.3 16.7188C43.3 15.2234 42.0513 14 40.525 14H16.475C14.9488 14 13.7 15.2234 13.7 16.7188V35.75H43.3V16.7188ZM39.6 32.125H17.4V17.625H39.6V32.125Z" fill="#9BFF6C"/>
</g>
</svg>
