<svg width="57" height="57" viewBox="0 0 57 57" fill="none" xmlns="http://www.w3.org/2000/svg">
<g id="Group 6">
<circle id="Ellipse 1" cx="28.5" cy="28.5" r="28.5" fill="#8C8A8A"/>
<path id="Vector" d="M30.3819 44L27.879 37.9297C30.2897 37.0104 32.5469 35.7741 34.6352 34.3318L30.3819 44ZM18.881 28.6419L13 26.0584L22.3665 21.6682C20.9692 23.8237 19.7716 26.1535 18.881 28.6419ZM39.7331 15.1699C40.163 15.1699 40.5469 15.1699 40.8693 15.2491C41.1304 17.4522 40.8386 21.9851 35.8022 27.1838C33.1918 29.894 30.0748 31.9703 26.5738 33.3492L23.2725 30.0208C24.6852 26.3596 26.6967 23.1421 29.2917 20.4636C33.5296 16.0892 37.307 15.1699 39.7331 15.1699ZM39.7331 12C36.6928 12 32.0863 13.0936 27.1112 18.2288C23.7485 21.6999 21.737 25.5196 20.4318 28.8638C20.0019 30.0525 20.2936 31.3522 21.1382 32.2397L24.4088 35.5998C24.9923 36.2021 25.7754 36.5666 26.5892 36.5666C26.9423 36.5666 27.3109 36.4715 27.664 36.3289C31.5313 34.8069 35.0426 32.4572 37.9672 29.4344C46.6582 20.4636 43.4029 12.6181 43.4029 12.6181C43.4029 12.6181 42.0056 12 39.7331 12ZM32.5469 23.8237C31.3492 22.5874 31.3492 20.5745 32.5469 19.3383C33.7446 18.102 35.6947 18.102 36.8924 19.3383C38.0747 20.5745 38.0901 22.5874 36.8924 23.8237C35.6947 25.0599 33.7446 25.0599 32.5469 23.8237ZM23.856 35.0292L21.6909 32.7945L23.856 35.0292ZM19.8023 43.6989L25.3915 37.9297C24.8694 37.787 24.3627 37.5493 23.902 37.2164L17.6372 43.6989H19.8023ZM13.2917 43.6989H15.4568L22.7811 36.1545L20.6007 33.9198L13.2917 41.4641V43.6989ZM13.2917 39.2135L19.5719 32.7469C19.2495 32.2714 19.0192 31.7642 18.881 31.2095L13.2917 36.9787V39.2135Z" fill="#9BFF6C"/>
</g>
</svg>
