<svg width="57" height="57" viewBox="0 0 57 57" fill="none" xmlns="http://www.w3.org/2000/svg">
<g id="Group 9">
<circle id="Ellipse 1" cx="28.5" cy="28.5" r="28.5" fill="#8C8A8A"/>
<path id="Vector" fill-rule="evenodd" clip-rule="evenodd" d="M30 13C30 12.4696 29.7893 11.9609 29.4142 11.5858C29.0391 11.2107 28.5304 11 28 11C27.4696 11 26.9609 11.2107 26.5858 11.5858C26.2107 11.9609 26 12.4696 26 13V15C23.8783 15 21.8434 15.8429 20.3431 17.3431C18.8429 18.8434 18 20.8783 18 23C18 25.1217 18.8429 27.1566 20.3431 28.6569C21.8434 30.1571 23.8783 31 26 31V39C25.1727 39.0001 24.3656 38.7438 23.69 38.2664C23.0143 37.789 22.5032 37.1139 22.227 36.334C22.0434 35.8431 21.6745 35.4438 21.1996 35.2222C20.7247 35.0005 20.1817 34.9741 19.6876 35.1486C19.1934 35.3232 18.7874 35.6847 18.5571 36.1555C18.3268 36.6263 18.2905 37.1687 18.456 37.666C19.0078 39.2259 20.0295 40.5764 21.3805 41.5316C22.7315 42.4868 24.3454 42.9998 26 43V45C26 45.5304 26.2107 46.0391 26.5858 46.4142C26.9609 46.7893 27.4696 47 28 47C28.5304 47 29.0391 46.7893 29.4142 46.4142C29.7893 46.0391 30 45.5304 30 45V43C32.1217 43 34.1566 42.1571 35.6569 40.6569C37.1571 39.1566 38 37.1217 38 35C38 32.8783 37.1571 30.8434 35.6569 29.3431C34.1566 27.8429 32.1217 27 30 27V19C30.8273 18.9999 31.6344 19.2562 32.31 19.7336C32.9857 20.211 33.4968 20.8861 33.773 21.666C33.9566 22.1569 34.3255 22.5562 34.8004 22.7778C35.2753 22.9995 35.8183 23.0259 36.3124 22.8514C36.8066 22.6768 37.2126 22.3153 37.4429 21.8445C37.6732 21.3737 37.7095 20.8313 37.544 20.334C36.9922 18.7741 35.9705 17.4236 34.6195 16.4684C33.2685 15.5132 31.6546 15.0002 30 15V13ZM26 19C24.9391 19 23.9217 19.4214 23.1716 20.1716C22.4214 20.9217 22 21.9391 22 23C22 24.0609 22.4214 25.0783 23.1716 25.8284C23.9217 26.5786 24.9391 27 26 27V19ZM30 31V39C31.0609 39 32.0783 38.5786 32.8284 37.8284C33.5786 37.0783 34 36.0609 34 35C34 33.9391 33.5786 32.9217 32.8284 32.1716C32.0783 31.4214 31.0609 31 30 31Z" fill="#9BFF6C"/>
</g>
</svg>
