<svg width="57" height="57" viewBox="0 0 57 57" fill="none" xmlns="http://www.w3.org/2000/svg">
<g id="Group 8">
<circle id="Ellipse 1" cx="28.5" cy="28.5" r="28.5" fill="#8C8A8A"/>
<path id="Vector" d="M33.4064 25.2C34.952 25.2 36.2064 26.4544 36.2064 28V35.5984C36.2064 37.5084 35.4477 39.3401 34.0971 40.6907C32.7465 42.0413 30.9148 42.8 29.0048 42.8C27.0948 42.8 25.2631 42.0413 23.9125 40.6907C22.5619 39.3401 21.8032 37.5084 21.8032 35.5984V28C21.8032 26.4544 23.056 25.2 24.6032 25.2H33.4064ZM21.2096 25.2C20.6496 25.8752 20.2896 26.72 20.2176 27.648L20.2016 28V35.5984C20.2016 36.9536 20.5088 38.2368 21.056 39.3824C20.1076 39.6361 19.1137 39.6683 18.1509 39.4765C17.1881 39.2847 16.2823 38.874 15.5036 38.2763C14.7249 37.6785 14.0941 36.9096 13.6599 36.0291C13.2258 35.1486 13 34.1801 13 33.1984V28C13 27.2973 13.2643 26.6203 13.7403 26.1034C14.2163 25.5865 14.8693 25.2674 15.5696 25.2096L15.8 25.2H21.2096ZM36.8 25.2H42.2C43.7456 25.2 45 26.4544 45 28V33.2C45.0002 34.1811 44.7749 35.149 44.3414 36.0292C43.908 36.9093 43.278 37.6779 42.5001 38.2758C41.7222 38.8736 40.8174 39.2847 39.8554 39.4771C38.8933 39.6695 37.9 39.6382 36.952 39.3856C37.432 38.3808 37.7264 37.2736 37.792 36.1024L37.8064 35.5984V28C37.8064 26.936 37.4288 25.96 36.7984 25.2H36.8ZM29 14C30.273 14 31.4939 14.5057 32.3941 15.4059C33.2943 16.3061 33.8 17.527 33.8 18.8C33.8 20.073 33.2943 21.2939 32.3941 22.1941C31.4939 23.0943 30.273 23.6 29 23.6C27.727 23.6 26.5061 23.0943 25.6059 22.1941C24.7057 21.2939 24.2 20.073 24.2 18.8C24.2 17.527 24.7057 16.3061 25.6059 15.4059C26.5061 14.5057 27.727 14 29 14ZM39.4 15.6C40.4609 15.6 41.4783 16.0214 42.2284 16.7716C42.9786 17.5217 43.4 18.5391 43.4 19.6C43.4 20.6609 42.9786 21.6783 42.2284 22.4284C41.4783 23.1786 40.4609 23.6 39.4 23.6C38.3391 23.6 37.3217 23.1786 36.5716 22.4284C35.8214 21.6783 35.4 20.6609 35.4 19.6C35.4 18.5391 35.8214 17.5217 36.5716 16.7716C37.3217 16.0214 38.3391 15.6 39.4 15.6ZM18.6 15.6C19.6609 15.6 20.6783 16.0214 21.4284 16.7716C22.1786 17.5217 22.6 18.5391 22.6 19.6C22.6 20.6609 22.1786 21.6783 21.4284 22.4284C20.6783 23.1786 19.6609 23.6 18.6 23.6C17.5391 23.6 16.5217 23.1786 15.7716 22.4284C15.0214 21.6783 14.6 20.6609 14.6 19.6C14.6 18.5391 15.0214 17.5217 15.7716 16.7716C16.5217 16.0214 17.5391 15.6 18.6 15.6Z" fill="#9BFF6C"/>
</g>
</svg>
