<svg width="57" height="57" viewBox="0 0 57 57" fill="none" xmlns="http://www.w3.org/2000/svg">
<g id="Group 5">
<circle id="Ellipse 3" cx="28.5" cy="28.5" r="28.5" fill="#8C8A8A"/>
<path id="Vector" d="M28.998 8C31.6903 8 33.8636 10.412 33.8636 13.4C33.8636 16.388 31.6903 18.8 28.998 18.8C26.3057 18.8 24.1324 16.388 24.1324 13.4C24.1324 10.412 26.3057 8 28.998 8ZM41.9729 36.8L38.7292 27.008C38.1615 25.226 37.6587 23.678 35.4854 22.4C33.2635 21.14 31.6416 20.6 28.998 20.6C26.3868 20.6 24.7649 21.14 22.5105 22.4C20.3697 23.678 19.8669 25.226 19.2668 27.008L16.0231 36.8C15.65 38.834 19.8831 41.192 22.7214 42.542C24.6838 43.496 26.7922 44 28.998 44C31.2362 44 33.3284 43.496 35.307 42.542C38.1453 41.192 42.3784 38.834 41.9729 36.8ZM34.5448 35.9L28.998 42.2L23.4512 35.9C22.8673 35.216 22.5105 34.298 22.5105 33.29C22.5105 31.256 23.9702 29.6 25.7543 29.6C26.6463 29.6 27.4734 30.014 28.0573 30.698L28.998 31.76L29.9387 30.68C30.5225 30.014 31.3497 29.6 32.2417 29.6C34.042 29.6 35.4854 31.256 35.4854 33.29C35.4854 34.298 35.1286 35.234 34.5448 35.9Z" fill="#9BFF6C"/>
</g>
</svg>
