<svg width="57" height="57" viewBox="0 0 57 57" fill="none" xmlns="http://www.w3.org/2000/svg">
<g id="Group 8">
<circle id="Ellipse 1" cx="28.5" cy="28.5" r="28.5" fill="#8C8A8A"/>
<path id="Vector" d="M38.4902 35.1257C35.624 29.461 28.1741 32.658 27.7158 35.6303C26.4721 32.5955 18.7868 30.8378 16.997 36.7458C16.6677 37.8334 16.7514 38.8712 17.1143 39.8517C16.9264 39.7726 16.7357 39.6995 16.5518 39.6104C15.2414 38.9719 14.0777 38.0832 13.1307 36.9978C12.1502 35.8686 11.4244 34.5532 11 33.136C11.1588 34.6613 11.6446 36.1376 12.4262 37.4704C13.238 38.8482 14.3283 40.0532 15.6319 41.0131C16.7078 41.8033 17.9041 42.4264 19.1778 42.8599C22.5145 46.1839 28.2351 48.4309 28.8683 49C29.6915 48.187 41.5744 41.2186 38.4902 35.1257Z" fill="#9BFF6C"/>
<path id="Vector_2" d="M47.4373 24.4086C45.1711 21.3892 41.1435 23.9008 41.1828 25.6614C40.1385 24.0156 35.4582 23.6868 35.0211 27.2606C34.6287 30.4791 39.805 32.1573 42.1546 32.9031C42.2068 33.1599 42.2556 33.4193 42.2861 33.6852C42.4299 35.0102 42.2912 36.3493 41.8781 37.6215C41.0574 40.2239 39.0758 42.585 36.3955 44C39.2954 43.085 41.9228 41.0358 43.4409 38.2486C44.2194 36.8302 44.6907 35.2761 44.8268 33.6793C44.8837 33.0354 44.8647 32.3759 44.8044 31.7177C46.62 29.828 49.135 26.6718 47.4373 24.4086Z" fill="#9BFF6C"/>
<path id="Vector_3" d="M35.7007 15.1502C36.3626 15.232 37.0151 15.3733 37.6495 15.572C39.0149 16.0013 40.2757 16.6904 41.3563 17.5982C42.4756 18.5429 43.3761 19.7017 44 21C43.6185 19.5608 42.9269 18.214 41.9699 17.0463C40.9759 15.8394 39.738 14.8372 38.3303 14.0998C37.5708 13.7018 36.7708 13.3796 35.9426 13.1382C35.3365 10.8422 31.8864 10.7437 30.9986 11.8399C31.2399 10.1892 28.2091 7.63622 25.8242 9.88455C23.1691 12.3873 27.7602 17.5061 27.9686 18.1212C28.4914 17.9653 34.2424 17.6233 35.7007 15.1502Z" fill="#9BFF6C"/>
<path id="Vector_4" d="M23.9934 25.0325C23.7802 21.5376 20.2443 20.8559 18.0385 21.5666C17.9825 20.7041 18.0402 19.8383 18.2102 18.9899C18.7513 16.2788 20.48 13.6961 23.0088 12C20.2061 13.2133 17.798 15.5456 16.5803 18.513C16.2564 19.2998 16.0187 20.1173 15.8709 20.952C14.4972 19.1262 11.1487 17.8457 8.85023 20.6003C5.5433 24.5662 12.9217 31.1556 13.3244 32C14.1258 31.6568 24.2946 29.9746 23.9934 25.0325Z" fill="#9BFF6C"/>
</g>
</svg>
