<svg width="40" height="40" viewBox="0 0 40 40" fill="none" xmlns="http://www.w3.org/2000/svg">
<path id="Vector" d="M35.7143 0H4.28571C1.91875 0 0 1.91875 0 4.28571V35.7143C0 38.0812 1.91875 40 4.28571 40H35.7143C38.0812 40 40 38.0812 40 35.7143V4.28571C40 1.91875 38.0812 0 35.7143 0ZM8.39286 34.2857C7.76491 34.2857 7.22705 33.8506 7.08786 33.2476L5.74875 27.444C5.67813 27.138 5.7173 26.8169 5.8594 26.5369C6.0015 26.2568 6.23751 26.0356 6.52616 25.9119L12.776 23.2334C13.043 23.119 13.3399 23.0945 13.622 23.1635C13.9041 23.2326 14.1562 23.3915 14.3401 23.6163L17.1077 26.9989C21.4777 24.9487 24.9913 21.3866 26.9988 17.1079L23.6162 14.3403C23.3914 14.1563 23.2325 13.9043 23.1634 13.6222C23.0943 13.3401 23.1188 13.0431 23.2332 12.7762L25.9118 6.52634C26.0355 6.23768 26.2567 6.00168 26.5368 5.85958C26.8168 5.71748 27.1379 5.67831 27.4439 5.74893L33.2475 7.08804C33.5426 7.15607 33.8059 7.32213 33.9945 7.55912C34.1831 7.7961 34.2857 8.09001 34.2857 8.39286C34.2857 22.7046 22.6835 34.2857 8.39286 34.2857Z" fill="#676767"/>
</svg>
