<svg width="42" height="44" viewBox="0 0 42 44" fill="none" xmlns="http://www.w3.org/2000/svg">
<path id="Vector" d="M37.2636 4.2845C36.1651 3.27916 31.7192 0.0740938 21.8067 0.0311305C21.8067 0.0311305 10.121 -0.664876 4.42952 4.5251C1.26375 7.67001 0.147942 12.2843 0.026847 17.9984C-0.0942482 23.7125 -0.241293 34.419 10.1469 37.3233H10.1556L10.1469 41.7571C10.1469 41.7571 10.0778 43.553 11.2714 43.9139C12.7072 44.3607 13.5549 42.9945 14.9302 41.5251C15.6827 40.7174 16.7207 39.5316 17.5078 38.6294C24.6178 39.2223 30.0758 37.8647 30.6985 37.667C32.1344 37.203 40.2564 36.1719 41.5712 25.4654C42.9378 14.4153 40.9138 7.43801 37.2636 4.2845ZM38.4659 24.6577C37.3501 33.5941 30.7677 34.1612 29.5568 34.5479C29.0378 34.7111 24.2372 35.8969 18.2084 35.5103C18.2084 35.5103 13.7106 40.8979 12.3094 42.2985C11.8509 42.7539 11.3492 42.7109 11.3579 41.8087C11.3579 41.2158 11.3925 34.4448 11.3925 34.4448C11.3838 34.4448 11.3838 34.4448 11.3925 34.4448C2.58714 32.0216 3.10613 22.9048 3.20127 18.1359C3.29642 13.367 4.20463 9.45729 6.88603 6.82793C11.7039 2.48863 21.625 3.13308 21.625 3.13308C30.0066 3.16746 34.02 5.67651 34.9542 6.5186C38.0421 9.14795 39.6163 15.4378 38.4659 24.6577ZM26.4429 17.7148C26.4775 18.4538 25.3617 18.5054 25.3271 17.7664C25.232 15.876 24.341 14.9566 22.5073 14.8535C21.7634 14.8105 21.8326 13.7021 22.5679 13.745C24.9811 13.8739 26.3218 15.2487 26.4429 17.7148ZM28.1988 18.6858C28.2853 15.0425 25.9931 12.1898 21.6423 11.8718C20.9071 11.8203 20.985 10.7118 21.7202 10.7634C26.737 11.1243 29.4097 14.5527 29.3146 18.7116C29.3059 19.4506 28.1815 19.4162 28.1988 18.6858ZM32.2641 19.8372C32.2728 20.5762 31.1483 20.5848 31.1483 19.8458C31.0964 12.8428 26.3997 9.02766 20.6995 8.98469C19.9643 8.9761 19.9643 7.87624 20.6995 7.87624C27.0743 7.9192 32.2036 12.2929 32.2641 19.8372ZM31.2867 28.2666V28.2838C30.3526 29.9164 28.6053 31.7209 26.8062 31.1452L26.7889 31.1194C24.9638 30.6124 20.6649 28.4127 17.9489 26.2646C16.5477 25.1647 15.2675 23.8672 14.2815 22.6213C13.3906 21.5128 12.491 20.1981 11.6174 18.6171C9.77501 15.3089 9.36848 13.831 9.36848 13.831C8.78895 12.0437 10.5967 10.308 12.2488 9.37996H12.2661C13.0619 8.96751 13.8231 9.10499 14.3334 9.71507C14.3334 9.71507 15.4059 10.9868 15.8644 11.614C16.2969 12.1984 16.8764 13.135 17.1791 13.6591C17.7067 14.5957 17.3781 15.5495 16.8591 15.9448L15.8211 16.7697C15.2935 17.1907 15.3627 17.9726 15.3627 17.9726C15.3627 17.9726 16.9023 23.7555 22.6544 25.2162C22.6544 25.2162 23.4415 25.285 23.8653 24.7608L24.6957 23.7297C25.0936 23.2142 26.0537 22.8876 26.9965 23.4118C28.268 24.125 29.8855 25.2334 30.958 26.2388C31.5635 26.7286 31.7019 27.4761 31.2867 28.2666Z" fill="#676767"/>
</svg>
