<svg width="41" height="40" viewBox="0 0 41 40" fill="none" xmlns="http://www.w3.org/2000/svg">
<path id="Vector" d="M20.5046 9.7445C14.6873 9.7445 9.99504 14.3233 9.99504 20C9.99504 25.6767 14.6873 30.2555 20.5046 30.2555C26.3219 30.2555 31.0141 25.6767 31.0141 20C31.0141 14.3233 26.3219 9.7445 20.5046 9.7445ZM20.5046 26.6674C16.7453 26.6674 13.672 23.6773 13.672 20C13.672 16.3227 16.7361 13.3326 20.5046 13.3326C24.273 13.3326 27.3371 16.3227 27.3371 20C27.3371 23.6773 24.2639 26.6674 20.5046 26.6674ZM33.8953 9.325C33.8953 10.6549 32.7977 11.7171 31.444 11.7171C30.0812 11.7171 28.9927 10.646 28.9927 9.325C28.9927 8.00402 30.0903 6.93295 31.444 6.93295C32.7977 6.93295 33.8953 8.00402 33.8953 9.325ZM40.8559 11.7528C40.7004 8.54848 39.9504 5.71014 37.5448 3.37164C35.1484 1.03314 32.2398 0.301238 28.9561 0.140578C25.5718 -0.0468593 15.4282 -0.0468593 12.0439 0.140578C8.76938 0.292313 5.86074 1.02421 3.45516 3.36271C1.04958 5.70122 0.308701 8.53955 0.14406 11.7438C-0.0480201 15.0463 -0.0480201 24.9448 0.14406 28.2472C0.299554 31.4515 1.04958 34.2899 3.45516 36.6284C5.86074 38.9669 8.76023 39.6988 12.0439 39.8594C15.4282 40.0469 25.5718 40.0469 28.9561 39.8594C32.2398 39.7077 35.1484 38.9758 37.5448 36.6284C39.9413 34.2899 40.6913 31.4515 40.8559 28.2472C41.048 24.9448 41.048 15.0552 40.8559 11.7528ZM36.4838 31.7907C35.7704 33.5401 34.3892 34.8879 32.5873 35.593C29.8891 36.6373 23.4864 36.3963 20.5046 36.3963C17.5228 36.3963 11.1109 36.6284 8.42181 35.593C6.62906 34.8968 5.24791 33.549 4.52532 31.7907C3.45516 29.1576 3.70212 22.9097 3.70212 20C3.70212 17.0903 3.46431 10.8334 4.52532 8.2093C5.23876 6.45989 6.61991 5.11213 8.42181 4.40701C11.1201 3.36271 17.5228 3.6037 20.5046 3.6037C23.4864 3.6037 29.8982 3.37164 32.5873 4.40701C34.3801 5.1032 35.7612 6.45096 36.4838 8.2093C37.554 10.8424 37.307 17.0903 37.307 20C37.307 22.9097 37.554 29.1666 36.4838 31.7907Z" fill="#676767"/>
</svg>
