<svg width="43" height="40" viewBox="0 0 43 40" fill="none" xmlns="http://www.w3.org/2000/svg">
<path id="Vector" d="M36.5596 5.8125C32.5379 2.0625 27.1821 0 21.4904 0C9.74219 0 0.182366 8.89286 0.182366 19.8214C0.182366 23.3125 1.16138 26.7232 3.02344 29.7321L0 40L11.2971 37.2411C14.4069 38.8214 17.9103 39.6518 21.4808 39.6518H21.4904C33.229 39.6518 43 30.7589 43 19.8304C43 14.5357 40.5812 9.5625 36.5596 5.8125ZM21.4904 36.3125C18.3038 36.3125 15.1844 35.5179 12.4681 34.0179L11.825 33.6607L5.12545 35.2946L6.91071 29.2143L6.48839 28.5893C4.71272 25.9643 3.7817 22.9375 3.7817 19.8214C3.7817 10.7411 11.729 3.34821 21.5 3.34821C26.2319 3.34821 30.6759 5.0625 34.0161 8.17857C37.3563 11.2946 39.4103 15.4286 39.4007 19.8304C39.4007 28.9196 31.2518 36.3125 21.4904 36.3125ZM31.2038 23.9732C30.6759 23.7232 28.0556 22.5268 27.5661 22.3661C27.0766 22.1964 26.7214 22.1161 26.3663 22.6161C26.0112 23.1161 24.9937 24.2232 24.677 24.5625C24.3699 24.8929 24.0531 24.9375 23.5252 24.6875C20.3962 23.2321 18.3422 22.0893 16.2786 18.7946C15.7315 17.9196 16.8257 17.9821 17.8431 16.0893C18.0158 15.7589 17.9295 15.4732 17.7951 15.2232C17.6607 14.9732 16.5953 12.5357 16.1538 11.5446C15.7219 10.5804 15.2804 10.7143 14.954 10.6964C14.6469 10.6786 14.2917 10.6786 13.9366 10.6786C13.5815 10.6786 13.0056 10.8036 12.5161 11.2946C12.0266 11.7946 10.654 12.9911 10.654 15.4286C10.654 17.8661 12.5641 20.2232 12.8232 20.5536C13.092 20.8839 16.5761 25.8839 21.9223 28.0357C25.3009 29.3929 26.6254 29.5089 28.3147 29.2768C29.3417 29.1339 31.4629 28.0804 31.9045 26.9196C32.346 25.7589 32.346 24.7679 32.2116 24.5625C32.0868 24.3393 31.7317 24.2143 31.2038 23.9732Z" fill="#676767"/>
</svg>
